<?xml version="1.0" encoding="UTF-8" standalone="no"?>
<!-- Created with Inkscape (http://www.inkscape.org/) -->

<svg
   xmlns:dc="http://purl.org/dc/elements/1.1/"
   xmlns:cc="http://creativecommons.org/ns#"
   xmlns:rdf="http://www.w3.org/1999/02/22-rdf-syntax-ns#"
   xmlns:svg="http://www.w3.org/2000/svg"
   xmlns="http://www.w3.org/2000/svg"
   xmlns:sodipodi="http://sodipodi.sourceforge.net/DTD/sodipodi-0.dtd"
   xmlns:inkscape="http://www.inkscape.org/namespaces/inkscape"
   width="546.21875"
   height="1006.875"
   id="svg2"
   version="1.1"
   inkscape:version="0.48.4 r9939"
   sodipodi:docname="logo.svg"
   inkscape:export-filename="/home/manuq/prog/PyConAr2013/diseño/logo.png"
   inkscape:export-xdpi="96"
   inkscape:export-ydpi="96">
  <defs
     id="defs4" />
  <sodipodi:namedview
     id="base"
     pagecolor="#ffffff"
     bordercolor="#666666"
     borderopacity="1.0"
     inkscape:pageopacity="1"
     inkscape:pageshadow="2"
     inkscape:zoom="0.23660855"
     inkscape:cx="140.97903"
     inkscape:cy="283.06219"
     inkscape:document-units="px"
     inkscape:current-layer="layer1"
     showgrid="false"
     inkscape:window-width="1024"
     inkscape:window-height="541"
     inkscape:window-x="0"
     inkscape:window-y="27"
     inkscape:window-maximized="1"
     showguides="true"
     inkscape:guide-bbox="true"
     fit-margin-top="0"
     fit-margin-left="0"
     fit-margin-right="0"
     fit-margin-bottom="0"
     inkscape:snap-bbox="true" />
  <metadata
     id="metadata7">
    <rdf:RDF>
      <cc:Work
         rdf:about="">
        <dc:format>image/svg+xml</dc:format>
        <dc:type
           rdf:resource="http://purl.org/dc/dcmitype/StillImage" />
        <dc:title />
      </cc:Work>
    </rdf:RDF>
  </metadata>
  <g
     inkscape:label="Capa 1"
     inkscape:groupmode="layer"
     id="layer1"
     transform="translate(611.45874,9.694107)">
    <text
       xml:space="preserve"
       style="font-size:36.50469589px;font-style:normal;font-variant:normal;font-weight:normal;font-stretch:normal;text-indent:0;text-align:start;text-decoration:none;line-height:100%;letter-spacing:0px;word-spacing:0px;text-transform:none;direction:ltr;block-progression:tb;writing-mode:lr-tb;text-anchor:start;baseline-shift:baseline;color:#000000;fill:#005de4;fill-opacity:1;fill-rule:nonzero;stroke:none;marker:none;visibility:visible;display:inline;overflow:visible;enable-background:accumulate;font-family:Aldrich;-inkscape-font-specification:Aldrich"
       x="-417.9317"
       y="360.40826"
       id="text2985"
       sodipodi:linespacing="100%"><tspan
         sodipodi:role="line"
         x="-417.9317"
         y="360.40826"
         id="tspan4320">PyConAr 2013</tspan><tspan
         sodipodi:role="line"
         x="-417.9317"
         y="396.91296"
         id="tspan4316">ROSARIO</tspan></text>
    <rect
       style="color:#000000;fill:#005de4;fill-opacity:1;fill-rule:nonzero;stroke:none;marker:none;visibility:visible;display:inline;overflow:visible;enable-background:accumulate"
       id="rect3029"
       width="94.212822"
       height="79.890549"
       x="-521.20276"
       y="330.24402"
       ry="12.878185" />
    <rect
       ry="9.2873316"
       y="333.73618"
       x="-517.08459"
       height="72.90625"
       width="85.976402"
       id="rect3799"
       style="fill:#ffffff;fill-opacity:1;stroke:none" />
    <path
       transform="matrix(1.0262367,0,0,0.8613058,-661.82275,-2.352947)"
       sodipodi:open="true"
       sodipodi:end="6.2621117"
       sodipodi:start="0"
       d="m 206.65273,444.27438 c 0,5.66186 -5.67691,10.25171 -12.67974,10.25171 -7.00282,0 -12.67973,-4.58985 -12.67973,-10.25171 0,-5.66186 5.67691,-10.2517 12.67973,-10.2517 6.8987,0 12.53155,4.45924 12.67692,10.03568"
       sodipodi:ry="10.251702"
       sodipodi:rx="12.679736"
       sodipodi:cy="444.27438"
       sodipodi:cx="193.97299"
       id="path3930"
       style="color:#000000;fill:#005de4;fill-opacity:1;fill-rule:nonzero;stroke:none;stroke-width:1.06364703;marker:none;visibility:visible;display:inline;overflow:visible;enable-background:accumulate"
       sodipodi:type="arc" />
    <path
       sodipodi:type="arc"
       style="color:#000000;fill:#005de4;fill-opacity:1;fill-rule:nonzero;stroke:none;stroke-width:1.06364703;marker:none;visibility:visible;display:inline;overflow:visible;enable-background:accumulate"
       id="path3932"
       sodipodi:cx="193.97299"
       sodipodi:cy="444.27438"
       sodipodi:rx="12.679736"
       sodipodi:ry="10.251702"
       d="m 206.65273,444.27438 c 0,5.66186 -5.67691,10.25171 -12.67974,10.25171 -7.00282,0 -12.67973,-4.58985 -12.67973,-10.25171 0,-5.66186 5.67691,-10.2517 12.67973,-10.2517 6.8987,0 12.53155,4.45924 12.67692,10.03568"
       sodipodi:start="0"
       sodipodi:end="6.2621117"
       sodipodi:open="true"
       transform="matrix(1.0262367,0,0,0.8613058,-695.76232,18.156025)" />
    <path
       sodipodi:type="arc"
       style="color:#000000;fill:#005de4;fill-opacity:1;fill-rule:nonzero;stroke:none;stroke-width:1.06364703;marker:none;visibility:visible;display:inline;overflow:visible;enable-background:accumulate"
       id="path3934"
       sodipodi:cx="193.97299"
       sodipodi:cy="444.27438"
       sodipodi:rx="12.679736"
       sodipodi:ry="10.251702"
       d="m 206.65273,444.27438 c 0,5.66186 -5.67691,10.25171 -12.67974,10.25171 -7.00282,0 -12.67973,-4.58985 -12.67973,-10.25171 0,-5.66186 5.67691,-10.2517 12.67973,-10.2517 6.8987,0 12.53155,4.45924 12.67692,10.03568"
       sodipodi:start="0"
       sodipodi:end="6.2621117"
       sodipodi:open="true"
       transform="matrix(1.0262367,0,0,0.8613058,-684.9003,-22.861918)" />
    <path
       transform="matrix(1.0262367,0,0,0.8613058,-650.96075,-43.3709)"
       sodipodi:open="true"
       sodipodi:end="6.2621117"
       sodipodi:start="0"
       d="m 206.65273,444.27438 c 0,5.66186 -5.67691,10.25171 -12.67974,10.25171 -7.00282,0 -12.67973,-4.58985 -12.67973,-10.25171 0,-5.66186 5.67691,-10.2517 12.67973,-10.2517 6.8987,0 12.53155,4.45924 12.67692,10.03568"
       sodipodi:ry="10.251702"
       sodipodi:rx="12.679736"
       sodipodi:cy="444.27438"
       sodipodi:cx="193.97299"
       id="path3936"
       style="color:#000000;fill:#005de4;fill-opacity:1;fill-rule:nonzero;stroke:none;stroke-width:1.06364703;marker:none;visibility:visible;display:inline;overflow:visible;enable-background:accumulate"
       sodipodi:type="arc" />
    <path
       sodipodi:nodetypes="cccc"
       inkscape:connector-curvature="0"
       id="path3938"
       d="m -451.69885,339.66911 -34.09491,20.22053 23.46702,20.25394 -34.99342,21.03929"
       style="fill:none;stroke:#005de4;stroke-width:3.77815938;stroke-linecap:butt;stroke-linejoin:miter;stroke-miterlimit:4;stroke-opacity:1;stroke-dasharray:none" />
    <rect
       style="color:#000000;fill:#005de4;fill-opacity:1;fill-rule:nonzero;stroke:none;stroke-width:1;marker:none;visibility:visible;display:inline;overflow:visible;enable-background:accumulate"
       id="rect4198"
       width="223.25195"
       height="79.890549"
       x="-527.0733"
       y="564.29053"
       ry="12.878185" />
    <text
       sodipodi:linespacing="100%"
       id="text4184"
       y="598.63428"
       x="-402.25433"
       style="font-size:36.50469589px;font-style:normal;font-variant:normal;font-weight:normal;font-stretch:normal;text-align:end;line-height:100%;letter-spacing:0px;word-spacing:0px;text-anchor:end;fill:#ffffff;fill-opacity:1;stroke:none;font-family:Aldrich;-inkscape-font-specification:Aldrich"
       xml:space="preserve"><tspan
         id="tspan4186"
         y="598.63428"
         x="-402.25433"
         sodipodi:role="line">PyCon</tspan><tspan
         id="tspan4188"
         y="635.13898"
         x="-402.25433"
         sodipodi:role="line">Ar</tspan></text>
    <text
       xml:space="preserve"
       style="font-size:36.50469589px;font-style:normal;font-variant:normal;font-weight:normal;font-stretch:normal;text-align:start;line-height:100%;letter-spacing:0px;word-spacing:0px;text-anchor:start;color:#000000;fill:#005de4;fill-opacity:1;fill-rule:nonzero;stroke:none;stroke-width:1;marker:none;visibility:visible;display:inline;overflow:visible;enable-background:accumulate;font-family:Aldrich;-inkscape-font-specification:Aldrich"
       x="-294.79715"
       y="598.63428"
       id="text4190"
       sodipodi:linespacing="100%"><tspan
         sodipodi:role="line"
         x="-294.79715"
         y="598.63428"
         id="tspan4192">2013</tspan><tspan
         id="tspan4194"
         sodipodi:role="line"
         x="-294.79715"
         y="635.13898">Rosario</tspan></text>
    <rect
       ry="9.2873316"
       y="567.78265"
       x="-393.91602"
       height="72.90625"
       width="85.976402"
       id="rect4200"
       style="fill:#ffffff;fill-opacity:1;stroke:none" />
    <path
       transform="matrix(1.0262367,0,0,0.8613058,-538.65417,231.69355)"
       sodipodi:open="true"
       sodipodi:end="6.2621117"
       sodipodi:start="0"
       d="m 206.65273,444.27438 c 0,5.66186 -5.67691,10.25171 -12.67974,10.25171 -7.00282,0 -12.67973,-4.58985 -12.67973,-10.25171 0,-5.66186 5.67691,-10.2517 12.67973,-10.2517 6.8987,0 12.53155,4.45924 12.67692,10.03568"
       sodipodi:ry="10.251702"
       sodipodi:rx="12.679736"
       sodipodi:cy="444.27438"
       sodipodi:cx="193.97299"
       id="path4202"
       style="color:#000000;fill:#005de4;fill-opacity:1;fill-rule:nonzero;stroke:none;stroke-width:1.06364703;marker:none;visibility:visible;display:inline;overflow:visible;enable-background:accumulate"
       sodipodi:type="arc" />
    <path
       sodipodi:type="arc"
       style="color:#000000;fill:#005de4;fill-opacity:1;fill-rule:nonzero;stroke:none;stroke-width:1.06364703;marker:none;visibility:visible;display:inline;overflow:visible;enable-background:accumulate"
       id="path4204"
       sodipodi:cx="193.97299"
       sodipodi:cy="444.27438"
       sodipodi:rx="12.679736"
       sodipodi:ry="10.251702"
       d="m 206.65273,444.27438 c 0,5.66186 -5.67691,10.25171 -12.67974,10.25171 -7.00282,0 -12.67973,-4.58985 -12.67973,-10.25171 0,-5.66186 5.67691,-10.2517 12.67973,-10.2517 6.8987,0 12.53155,4.45924 12.67692,10.03568"
       sodipodi:start="0"
       sodipodi:end="6.2621117"
       sodipodi:open="true"
       transform="matrix(1.0262367,0,0,0.8613058,-572.59374,252.20252)" />
    <path
       sodipodi:type="arc"
       style="color:#000000;fill:#005de4;fill-opacity:1;fill-rule:nonzero;stroke:none;stroke-width:1.06364703;marker:none;visibility:visible;display:inline;overflow:visible;enable-background:accumulate"
       id="path4206"
       sodipodi:cx="193.97299"
       sodipodi:cy="444.27438"
       sodipodi:rx="12.679736"
       sodipodi:ry="10.251702"
       d="m 206.65273,444.27438 c 0,5.66186 -5.67691,10.25171 -12.67974,10.25171 -7.00282,0 -12.67973,-4.58985 -12.67973,-10.25171 0,-5.66186 5.67691,-10.2517 12.67973,-10.2517 6.8987,0 12.53155,4.45924 12.67692,10.03568"
       sodipodi:start="0"
       sodipodi:end="6.2621117"
       sodipodi:open="true"
       transform="matrix(1.0262367,0,0,0.8613058,-561.73172,211.18458)" />
    <path
       transform="matrix(1.0262367,0,0,0.8613058,-527.79217,190.6756)"
       sodipodi:open="true"
       sodipodi:end="6.2621117"
       sodipodi:start="0"
       d="m 206.65273,444.27438 c 0,5.66186 -5.67691,10.25171 -12.67974,10.25171 -7.00282,0 -12.67973,-4.58985 -12.67973,-10.25171 0,-5.66186 5.67691,-10.2517 12.67973,-10.2517 6.8987,0 12.53155,4.45924 12.67692,10.03568"
       sodipodi:ry="10.251702"
       sodipodi:rx="12.679736"
       sodipodi:cy="444.27438"
       sodipodi:cx="193.97299"
       id="path4208"
       style="color:#000000;fill:#005de4;fill-opacity:1;fill-rule:nonzero;stroke:none;stroke-width:1.06364703;marker:none;visibility:visible;display:inline;overflow:visible;enable-background:accumulate"
       sodipodi:type="arc" />
    <path
       sodipodi:nodetypes="cccc"
       inkscape:connector-curvature="0"
       id="path4210"
       d="m -328.53027,573.71561 -34.09491,20.22053 23.46702,20.25394 -34.99342,21.03929"
       style="fill:none;stroke:#005de4;stroke-width:3.77815938;stroke-linecap:butt;stroke-linejoin:miter;stroke-miterlimit:4;stroke-opacity:1;stroke-dasharray:none" />
    <path
       transform="matrix(0.70505051,0,0,0.70505051,-272.86277,-334.86171)"
       sodipodi:open="true"
       sodipodi:end="6.2621117"
       sodipodi:start="0"
       d="m -229.45958,664.59949 c 0,36.64928 -29.71011,66.35939 -66.35939,66.35939 -36.64928,0 -66.35939,-29.71011 -66.35939,-66.35939 0,-36.64928 29.71011,-66.35939 66.35939,-66.35939 36.10434,0 65.58386,28.86473 66.34466,64.96106"
       sodipodi:ry="66.35939"
       sodipodi:rx="66.35939"
       sodipodi:cy="664.59949"
       sodipodi:cx="-295.81897"
       id="path4290"
       style="fill:#005de4;fill-opacity:1;stroke:none"
       sodipodi:type="arc" />
    <path
       sodipodi:type="arc"
       style="fill:#ffffff;fill-opacity:1;stroke:none"
       id="path4292"
       sodipodi:cx="193.97299"
       sodipodi:cy="444.27438"
       sodipodi:rx="12.679736"
       sodipodi:ry="10.251702"
       d="m 206.65273,444.27438 c 0,5.66186 -5.67691,10.25171 -12.67974,10.25171 -7.00282,0 -12.67973,-4.58985 -12.67973,-10.25171 0,-5.66186 5.67691,-10.2517 12.67973,-10.2517 6.8987,0 12.53155,4.45924 12.67692,10.03568"
       sodipodi:start="0"
       sodipodi:end="6.2621117"
       sodipodi:open="true"
       transform="matrix(1.0901991,0,0,0.9149885,-676.80718,-259.93264)" />
    <path
       transform="matrix(1.0901991,0,0,0.9149885,-712.8621,-238.14539)"
       sodipodi:open="true"
       sodipodi:end="6.2621117"
       sodipodi:start="0"
       d="m 206.65273,444.27438 c 0,5.66186 -5.67691,10.25171 -12.67974,10.25171 -7.00282,0 -12.67973,-4.58985 -12.67973,-10.25171 0,-5.66186 5.67691,-10.2517 12.67973,-10.2517 6.8987,0 12.53155,4.45924 12.67692,10.03568"
       sodipodi:ry="10.251702"
       sodipodi:rx="12.679736"
       sodipodi:cy="444.27438"
       sodipodi:cx="193.97299"
       id="path4294"
       style="fill:#ffffff;fill-opacity:1;stroke:none"
       sodipodi:type="arc" />
    <path
       transform="matrix(1.0901991,0,0,0.9149885,-701.3231,-281.71988)"
       sodipodi:open="true"
       sodipodi:end="6.2621117"
       sodipodi:start="0"
       d="m 206.65273,444.27438 c 0,5.66186 -5.67691,10.25171 -12.67974,10.25171 -7.00282,0 -12.67973,-4.58985 -12.67973,-10.25171 0,-5.66186 5.67691,-10.2517 12.67973,-10.2517 6.8987,0 12.53155,4.45924 12.67692,10.03568"
       sodipodi:ry="10.251702"
       sodipodi:rx="12.679736"
       sodipodi:cy="444.27438"
       sodipodi:cx="193.97299"
       id="path4296"
       style="fill:#ffffff;fill-opacity:1;stroke:none"
       sodipodi:type="arc" />
    <path
       sodipodi:type="arc"
       style="fill:#ffffff;fill-opacity:1;stroke:none"
       id="path4298"
       sodipodi:cx="193.97299"
       sodipodi:cy="444.27438"
       sodipodi:rx="12.679736"
       sodipodi:ry="10.251702"
       d="m 206.65273,444.27438 c 0,5.66186 -5.67691,10.25171 -12.67974,10.25171 -7.00282,0 -12.67973,-4.58985 -12.67973,-10.25171 0,-5.66186 5.67691,-10.2517 12.67973,-10.2517 6.8987,0 12.53155,4.45924 12.67692,10.03568"
       sodipodi:start="0"
       sodipodi:end="6.2621117"
       sodipodi:open="true"
       transform="matrix(1.0901991,0,0,0.9149885,-665.26818,-303.50712)" />
    <path
       style="fill:none;stroke:#ffffff;stroke-width:3.1609621;stroke-linecap:butt;stroke-linejoin:miter;stroke-miterlimit:4;stroke-opacity:1;stroke-dasharray:none"
       d="m -453.58685,103.40668 -36.21997,21.48081 24.92966,21.51631 -37.17447,22.35062"
       id="path4300"
       inkscape:connector-curvature="0"
       sodipodi:nodetypes="cccc" />
    <text
       xml:space="preserve"
       style="font-size:36.50469589px;font-style:normal;font-variant:normal;font-weight:normal;font-stretch:normal;text-align:end;line-height:100%;letter-spacing:0px;word-spacing:0px;text-anchor:end;fill:#005de4;fill-opacity:1;stroke:none;font-family:Aldrich;-inkscape-font-specification:Aldrich"
       x="-303.72012"
       y="128.24231"
       id="text4302"
       sodipodi:linespacing="100%"><tspan
         sodipodi:role="line"
         x="-303.72012"
         y="128.24231"
         id="tspan4304">PyCon</tspan><tspan
         sodipodi:role="line"
         x="-303.72012"
         y="164.74701"
         id="tspan4306">Ar</tspan></text>
    <text
       sodipodi:linespacing="100%"
       id="text4308"
       y="128.24231"
       x="-291.14667"
       style="font-size:36.50469589px;font-style:normal;font-variant:normal;font-weight:normal;font-stretch:normal;text-align:start;line-height:100%;letter-spacing:0px;word-spacing:0px;text-anchor:start;fill:#005de4;fill-opacity:1;stroke:none;font-family:Aldrich;-inkscape-font-specification:Aldrich"
       xml:space="preserve"><tspan
         id="tspan4310"
         y="128.24231"
         x="-291.14667"
         sodipodi:role="line">2013</tspan><tspan
         y="164.74701"
         x="-291.14667"
         sodipodi:role="line"
         id="tspan4312">Rosario</tspan></text>
    <path
       style="fill:none;stroke:#005de4;stroke-width:2.46406698;stroke-linecap:butt;stroke-linejoin:miter;stroke-miterlimit:4;stroke-opacity:1;stroke-dasharray:none"
       d="m -297.1015,102.6914 0,62.6065"
       id="path4314"
       inkscape:connector-curvature="0"
       sodipodi:nodetypes="cc" />
    <rect
       ry="12.878185"
       y="804.29053"
       x="-527.0733"
       height="79.890549"
       width="223.25195"
       id="rect4508"
       style="color:#000000;fill:#005de4;fill-opacity:1;fill-rule:nonzero;stroke:none;stroke-width:1;marker:none;visibility:visible;display:inline;overflow:visible;enable-background:accumulate" />
    <text
       xml:space="preserve"
       style="font-size:36.50469589px;font-style:normal;font-variant:normal;font-weight:normal;font-stretch:normal;text-align:end;line-height:100%;letter-spacing:0px;word-spacing:0px;text-anchor:end;fill:#ffffff;fill-opacity:1;stroke:none;font-family:Aldrich;-inkscape-font-specification:Aldrich"
       x="-312.25433"
       y="838.63428"
       id="text4510"
       sodipodi:linespacing="100%"><tspan
         sodipodi:role="line"
         x="-312.25433"
         y="838.63428"
         id="tspan4512">PyCon</tspan><tspan
         sodipodi:role="line"
         x="-312.25433"
         y="875.13898"
         id="tspan4514">Ar</tspan></text>
    <text
       sodipodi:linespacing="100%"
       id="text4516"
       y="838.63428"
       x="-294.79715"
       style="font-size:36.50469589px;font-style:normal;font-variant:normal;font-weight:normal;font-stretch:normal;text-align:start;line-height:100%;letter-spacing:0px;word-spacing:0px;text-anchor:start;color:#000000;fill:#005de4;fill-opacity:1;fill-rule:nonzero;stroke:none;stroke-width:1;marker:none;visibility:visible;display:inline;overflow:visible;enable-background:accumulate;font-family:Aldrich;-inkscape-font-specification:Aldrich"
       xml:space="preserve"><tspan
         id="tspan4518"
         y="838.63428"
         x="-294.79715"
         sodipodi:role="line">2013</tspan><tspan
         y="875.13898"
         x="-294.79715"
         sodipodi:role="line"
         id="tspan4520">Rosario</tspan></text>
    <rect
       style="fill:#ffffff;fill-opacity:1;stroke:none"
       id="rect4522"
       width="85.976402"
       height="72.90625"
       x="-523.91602"
       y="807.78265"
       ry="9.2873316" />
    <path
       sodipodi:type="arc"
       style="color:#000000;fill:#005de4;fill-opacity:1;fill-rule:nonzero;stroke:none;stroke-width:1.06364703;marker:none;visibility:visible;display:inline;overflow:visible;enable-background:accumulate"
       id="path4524"
       sodipodi:cx="193.97299"
       sodipodi:cy="444.27438"
       sodipodi:rx="12.679736"
       sodipodi:ry="10.251702"
       d="m 206.65273,444.27438 c 0,5.66186 -5.67691,10.25171 -12.67974,10.25171 -7.00282,0 -12.67973,-4.58985 -12.67973,-10.25171 0,-5.66186 5.67691,-10.2517 12.67973,-10.2517 6.8987,0 12.53155,4.45924 12.67692,10.03568"
       sodipodi:start="0"
       sodipodi:end="6.2621117"
       sodipodi:open="true"
       transform="matrix(1.0262367,0,0,0.8613058,-668.65417,471.69355)" />
    <path
       transform="matrix(1.0262367,0,0,0.8613058,-702.59374,492.20252)"
       sodipodi:open="true"
       sodipodi:end="6.2621117"
       sodipodi:start="0"
       d="m 206.65273,444.27438 c 0,5.66186 -5.67691,10.25171 -12.67974,10.25171 -7.00282,0 -12.67973,-4.58985 -12.67973,-10.25171 0,-5.66186 5.67691,-10.2517 12.67973,-10.2517 6.8987,0 12.53155,4.45924 12.67692,10.03568"
       sodipodi:ry="10.251702"
       sodipodi:rx="12.679736"
       sodipodi:cy="444.27438"
       sodipodi:cx="193.97299"
       id="path4526"
       style="color:#000000;fill:#005de4;fill-opacity:1;fill-rule:nonzero;stroke:none;stroke-width:1.06364703;marker:none;visibility:visible;display:inline;overflow:visible;enable-background:accumulate"
       sodipodi:type="arc" />
    <path
       transform="matrix(1.0262367,0,0,0.8613058,-691.73172,451.18458)"
       sodipodi:open="true"
       sodipodi:end="6.2621117"
       sodipodi:start="0"
       d="m 206.65273,444.27438 c 0,5.66186 -5.67691,10.25171 -12.67974,10.25171 -7.00282,0 -12.67973,-4.58985 -12.67973,-10.25171 0,-5.66186 5.67691,-10.2517 12.67973,-10.2517 6.8987,0 12.53155,4.45924 12.67692,10.03568"
       sodipodi:ry="10.251702"
       sodipodi:rx="12.679736"
       sodipodi:cy="444.27438"
       sodipodi:cx="193.97299"
       id="path4528"
       style="color:#000000;fill:#005de4;fill-opacity:1;fill-rule:nonzero;stroke:none;stroke-width:1.06364703;marker:none;visibility:visible;display:inline;overflow:visible;enable-background:accumulate"
       sodipodi:type="arc" />
    <path
       sodipodi:type="arc"
       style="color:#000000;fill:#005de4;fill-opacity:1;fill-rule:nonzero;stroke:none;stroke-width:1.06364703;marker:none;visibility:visible;display:inline;overflow:visible;enable-background:accumulate"
       id="path4530"
       sodipodi:cx="193.97299"
       sodipodi:cy="444.27438"
       sodipodi:rx="12.679736"
       sodipodi:ry="10.251702"
       d="m 206.65273,444.27438 c 0,5.66186 -5.67691,10.25171 -12.67974,10.25171 -7.00282,0 -12.67973,-4.58985 -12.67973,-10.25171 0,-5.66186 5.67691,-10.2517 12.67973,-10.2517 6.8987,0 12.53155,4.45924 12.67692,10.03568"
       sodipodi:start="0"
       sodipodi:end="6.2621117"
       sodipodi:open="true"
       transform="matrix(1.0262367,0,0,0.8613058,-657.79217,430.6756)" />
    <path
       style="fill:none;stroke:#005de4;stroke-width:3.77815938;stroke-linecap:butt;stroke-linejoin:miter;stroke-miterlimit:4;stroke-opacity:1;stroke-dasharray:none"
       d="m -458.53027,813.71561 -34.09491,20.22053 23.46702,20.25394 -34.99342,21.03929"
       id="path4532"
       inkscape:connector-curvature="0"
       sodipodi:nodetypes="cccc" />
  </g>
</svg>
